<?xml version="1.0" encoding="UTF-8" standalone="no"?>
<!DOCTYPE svg PUBLIC "-//W3C//DTD SVG 1.1//EN" "http://www.w3.org/Graphics/SVG/1.1/DTD/svg11.dtd">
<svg width="100%" height="100%" viewBox="0 0 16 16" version="1.1" xmlns="http://www.w3.org/2000/svg" xmlns:xlink="http://www.w3.org/1999/xlink" xml:space="preserve" xmlns:serif="http://www.serif.com/" style="fill-rule:evenodd;clip-rule:evenodd;stroke-linejoin:round;stroke-miterlimit:2;">
    <path d="M5.5,7C5.226,7 5,7.226 5,7.5C5,7.774 5.226,8 5.5,8L10.5,8C10.774,8 11,7.774 11,7.5C11,7.226 10.774,7 10.5,7L5.5,7ZM5,9.5C5,9.226 5.226,9 5.5,9L10.5,9C10.774,9 11,9.226 11,9.5C11,9.774 10.774,10 10.5,10L5.5,10C5.226,10 5,9.774 5,9.5ZM5,11.5C5,11.226 5.226,11 5.5,11L7.5,11C7.774,11 8,11.226 8,11.5C8,11.774 7.774,12 7.5,12L5.5,12C5.226,12 5,11.774 5,11.5Z" style="fill:rgb(0,123,193);fill-rule:nonzero;"/>
    <path d="M9.5,0L4,0C2.903,0 2,0.903 2,2L2,14C2,15.097 2.903,16 4,16L12,16C13.097,16 14,15.097 14,14L14,4.5L9.5,0ZM9.5,1L9.5,3C9.5,3.823 10.177,4.5 11,4.5L13,4.5L13,14C13,14.549 12.549,15 12,15L4,15C3.451,15 3,14.549 3,14L3,2C3,1.451 3.451,1 4,1L9.5,1Z" style="fill:rgb(0,123,193);fill-rule:nonzero;"/>
</svg>
