<?xml version="1.0" encoding="UTF-8" standalone="no"?>
<!DOCTYPE svg PUBLIC "-//W3C//DTD SVG 1.1//EN" "http://www.w3.org/Graphics/SVG/1.1/DTD/svg11.dtd">
<svg width="100%" height="100%" viewBox="0 0 264 145" version="1.1" xmlns="http://www.w3.org/2000/svg" xmlns:xlink="http://www.w3.org/1999/xlink" xml:space="preserve" xmlns:serif="http://www.serif.com/" style="fill-rule:evenodd;clip-rule:evenodd;stroke-linejoin:round;stroke-miterlimit:2;">
    <g transform="matrix(2.0343,0,0,2.0343,118.855,7.45631)">
        <path d="M0,63.947L-2.024,57.951L-3.042,57.951L-0.504,65.11C-0.696,65.774 -0.895,65.934 -1.226,65.934C-1.444,65.934 -1.713,65.906 -1.864,65.82L-1.864,66.685C-1.735,66.735 -1.516,66.786 -1.131,66.786C-0.442,66.786 0.053,66.435 0.468,65.162L2.841,57.951L1.84,57.951L0,63.947ZM-9.663,21.226L-5.97,21.226L-5.97,18.606L-13.723,18.606L-13.723,39.692L-9.663,39.692L-9.663,21.226ZM28.922,64.681L28.67,64.681L28.67,59.703L28.905,59.703C30.094,59.703 31.012,60.467 31.012,62.16C31.012,63.862 30.117,64.681 28.922,64.681M27.71,64.681L27.46,64.681C26.261,64.681 25.361,63.862 25.361,62.16C25.361,60.467 26.286,59.703 27.464,59.703L27.71,59.703L27.71,64.681ZM28.905,58.838L28.67,58.838L28.67,57.951L27.71,57.951L27.71,58.838L27.46,58.838C25.923,58.838 24.365,59.828 24.365,62.178C24.365,64.54 25.822,65.542 27.464,65.542L27.71,65.542L27.71,66.586L28.67,66.586L28.67,65.542L28.892,65.542C30.537,65.542 32.007,64.522 32.007,62.178C32.007,59.815 30.435,58.838 28.905,58.838M-30.288,18.113C-30.148,14.768 -29.377,11.346 -28.947,9.768C-27.314,4.498 -25.465,1.139 -25.122,0.6C-24.782,1.139 -22.452,5.286 -21.246,9.636C-20.048,13.999 -19.815,18.161 -19.856,20.618C-19.915,23.082 -20.209,25.675 -20.585,27.232C-20.449,24.556 -20.768,20.786 -21.382,17.844C-21.994,14.895 -23.742,9.994 -25.122,7.711C-26.406,9.879 -27.986,14.132 -28.818,17.82C-29.649,21.516 -29.67,25.974 -29.67,27.305C-29.893,26.179 -30.442,22.158 -30.288,18.113M-25.093,39.437C-25.824,38.072 -26.945,35.485 -27.049,31.484C-27.08,27.598 -25.533,24.279 -25.076,23.588C-24.671,24.279 -23.338,27.179 -23.179,31.128C-23.072,34.996 -24.349,38.05 -25.093,39.437M-25.076,41.034C-23.473,38.952 -19.776,32.732 -18.63,24.606C-17.991,20.09 -17.956,16.141 -19.431,9.695C-20.897,3.255 -24.59,-1.987 -25.093,-2.839C-25.903,-1.641 -28.844,2.979 -30.343,8.116C-31.965,13.837 -32.198,18.91 -31.647,23.916C-31.087,28.905 -28.97,34.039 -28.97,34.039C-27.854,36.739 -26.172,39.619 -25.076,41.034M-0.677,21.223L-0.448,21.223L0.254,31.77L-1.374,31.77L-0.677,21.223ZM-5.877,39.692L-1.901,39.692L-1.516,34.091L0.397,34.091L0.775,39.692L4.755,39.692L2.639,18.606L-3.758,18.606L-5.877,39.692ZM-33.789,50.042L-33.762,50.014C-31.122,47.377 -26.858,47.377 -24.215,50.014C-21.581,52.657 -21.581,56.931 -24.215,59.559L-24.253,59.593L-24.253,59.607L-24.291,59.628C-26.917,62.235 -30.361,63.553 -33.789,63.553C-37.237,63.553 -40.689,62.228 -43.323,59.607C-47.964,54.949 -48.513,47.777 -44.973,42.537C-44.49,41.829 -43.951,41.158 -43.323,40.536C-40.689,37.902 -37.237,36.584 -33.789,36.584L-33.789,18.54C-47.045,18.54 -57.801,29.288 -57.801,42.537C-57.801,55.807 -47.045,66.541 -33.789,66.541C-26.874,66.541 -20.646,63.621 -16.275,58.947L-16.275,42.537L-33.789,42.537L-33.789,50.042ZM55.484,63.239L56.629,58.651L56.647,58.651L57.764,63.239L55.484,63.239ZM56.02,57.951L53.571,66.586L54.62,66.586L55.257,64.107L57.98,64.107L58.664,66.586L59.711,66.586L57.292,57.951L56.02,57.951ZM15.924,25.75L15.924,22.377C15.924,20.905 15.753,18.606 12.899,18.606L9.529,18.606C6.685,18.606 6.511,20.905 6.511,22.377L6.511,25.359L10.581,25.359L10.581,21.918C10.581,21.382 10.989,21.226 11.217,21.226C11.6,21.226 11.857,21.559 11.857,21.918L11.857,26.112C11.857,27.407 11.449,27.676 10.296,27.676L8.572,27.676L8.572,30.004L10.225,30.004C11.746,30.004 11.857,30.715 11.857,31.379L11.857,36.282C11.857,36.643 11.6,36.974 11.217,36.974C10.989,36.974 10.581,36.819 10.581,36.282L10.581,32.312L6.511,32.312L6.511,35.929C6.511,37.4 6.685,39.692 9.529,39.692L12.899,39.692C15.753,39.692 15.924,37.4 15.924,35.929L15.924,31.685C15.924,30.921 15.9,28.757 13.163,28.815L13.163,28.609C14.386,28.672 15.924,28.041 15.924,25.75M12.034,46.107L12.019,46.107L11.479,49.834L12.572,49.834L12.034,46.107ZM62.791,33.426L60.147,18.606L54.86,18.606L54.86,39.692L58.935,39.692L58.935,26.472L59.076,26.472L61.174,39.692L64.424,39.692L66.518,26.472L66.662,26.472L66.662,39.692L70.724,39.692L70.724,18.606L65.448,18.606L62.791,33.426ZM55.2,46.107L55.188,46.107L54.654,49.834L55.738,49.834L55.2,46.107ZM2.245,47.141C2.245,46.307 1.805,46.107 1.215,46.107L0.881,46.107L0.881,48.228L1.251,48.228C1.754,48.228 2.245,47.982 2.245,47.141M-11.638,44.59L-6.647,44.59L-6.647,46.184L-8.154,46.184L-8.154,53.072L-10.034,53.072L-10.034,46.184L-11.638,46.184L-11.638,44.59ZM-1.168,44.59L1.805,44.59C2.984,44.59 4.287,45.004 4.287,47.167C4.287,49.254 3.008,49.755 1.805,49.755L0.881,49.755L0.881,53.072L-1.168,53.072L-1.168,44.59ZM10.842,44.59L13.287,44.59L15.159,53.072L13.149,53.072L12.846,51.359L11.282,51.359L11.02,53.072L8.993,53.072L10.842,44.59ZM20.495,44.59L22.535,44.59L22.535,47.852L23.888,47.852L23.888,44.59L25.92,44.59L25.92,53.072L23.888,53.072L23.888,49.459L22.535,49.459L22.535,53.072L20.495,53.072L20.495,44.59ZM31.694,46.787C31.694,45.451 32.52,44.387 34.457,44.387C36.369,44.387 37.219,45.473 37.219,46.805L37.219,47.377L35.174,47.377L35.174,46.608C35.174,46.162 34.752,45.949 34.426,45.949C34.084,45.949 33.735,46.137 33.735,46.572L33.735,50.802C33.735,51.449 34.005,51.708 34.426,51.708C34.863,51.708 35.174,51.466 35.174,50.83L35.174,49.711L37.219,49.711L37.219,50.499C37.219,52.424 36.341,53.267 34.457,53.267C32.573,53.267 31.694,52.437 31.694,50.487L31.694,46.787ZM42.985,44.59L47.745,44.59L47.745,46.184L45.04,46.184L45.04,53.072L42.985,53.072L42.985,44.59ZM54.006,44.59L56.447,44.59L58.334,53.072L56.328,53.072L56.015,51.359L54.455,51.359L54.196,53.072L52.157,53.072L54.006,44.59ZM65.878,49.418L65.571,49.418L65.571,47.89L66.068,47.89C66.363,47.89 66.68,47.561 66.68,46.957C66.68,46.314 66.481,45.914 65.997,45.914C65.478,45.914 65.313,46.292 65.313,47.167L63.428,47.167C63.428,45.407 64.535,44.387 65.997,44.387C67.614,44.387 68.53,45.443 68.53,46.633C68.53,47.688 68.184,48.223 67.313,48.596L67.34,48.596C68.202,48.915 68.821,49.261 68.821,50.79C68.821,52.475 67.73,53.267 66.113,53.267C64.853,53.267 63.428,52.707 63.428,50.527L65.313,50.527C65.313,51.466 65.571,51.747 66.022,51.747C66.558,51.747 66.776,51.466 66.776,50.527C66.776,49.735 66.529,49.418 65.878,49.418M-13.711,55.109L70.724,55.145L70.724,42.537L-13.711,42.559L-13.711,55.109ZM28.019,39.692L28.019,18.606L18.601,18.606L18.601,39.692L22.665,39.692L22.665,21.226L23.946,21.226L23.946,39.692L28.019,39.692ZM36.033,29.162C36.033,29.807 35.721,30.204 35.271,30.204L34.766,30.204L34.766,21.226L35.271,21.226C35.721,21.226 36.033,21.622 36.033,22.277L36.033,29.162ZM30.689,18.606L30.689,39.692L34.766,39.692L34.766,32.523L37.075,32.523C39.936,32.523 40.106,30.239 40.106,28.757L40.106,22.377C40.106,20.905 39.936,18.606 37.075,18.606L30.689,18.606ZM46.841,21.918C46.841,21.382 47.252,21.226 47.486,21.226C47.856,21.226 48.124,21.559 48.124,21.918L48.124,36.282C48.124,36.643 47.856,36.974 47.486,36.974C47.252,36.974 46.841,36.819 46.841,36.282L46.841,21.918ZM42.783,22.377L42.783,35.929C42.783,37.4 42.952,39.692 45.801,39.692L49.172,39.692C52.013,39.692 52.195,37.4 52.195,35.929L52.195,22.377C52.195,20.905 52.013,18.606 49.172,18.606L45.801,18.606C42.952,18.606 42.783,20.905 42.783,22.377" style="fill:rgb(0,123,193);fill-rule:nonzero;"/>
    </g>
</svg>
